<?xml version="1.0" encoding="UTF-8"?>
<svg xmlns="http://www.w3.org/2000/svg" viewBox="0 0 1200 630" width="1200" height="630">
  <defs>
    <radialGradient id="glow1" cx="20%" cy="15%" r="50%">
      <stop offset="0%" stop-color="#dfc684" stop-opacity="0.10"/>
      <stop offset="100%" stop-color="#dfc684" stop-opacity="0"/>
    </radialGradient>
    <radialGradient id="glow2" cx="90%" cy="90%" r="55%">
      <stop offset="0%" stop-color="#dfc684" stop-opacity="0.06"/>
      <stop offset="100%" stop-color="#dfc684" stop-opacity="0"/>
    </radialGradient>
    <style>
      .display { font-family: 'Fraunces', 'Times New Roman', Georgia, serif; font-weight: 360; }
      .display-em { font-family: 'Fraunces', 'Times New Roman', Georgia, serif; font-style: italic; font-weight: 360; fill: #ead398; }
      .body { font-family: 'Inter', -apple-system, 'Segoe UI', sans-serif; font-weight: 400; }
      .mono { font-family: 'JetBrains Mono', ui-monospace, 'SF Mono', Menlo, monospace; font-weight: 500; letter-spacing: 0.22em; }
    </style>
  </defs>

  <!-- Background -->
  <rect width="1200" height="630" fill="#0a0a0b"/>
  <rect width="1200" height="630" fill="url(#glow1)"/>
  <rect width="1200" height="630" fill="url(#glow2)"/>

  <!-- Brand mark + wordmark, top-left.
       Mark scaled to ~70px tall; wordmark to ~36px tall, vertically centered. -->
  <g fill="#ead398">
    <!-- Mark: scale(0.143) brings 488-tall bbox to 70px; inner translate puts its bbox top-left at (0,0). -->
    <g transform="translate(80, 80) scale(0.143) translate(-411, -93)">
      <rect x="462.42" y="205.88" width="349.61" height="75.25" transform="translate(358.82 -379.26) rotate(45)"/>
      <rect x="679.54" y="261.7" width="191.69" height="75.25" transform="translate(1535.32 -37.29) rotate(135)"/>
      <rect x="506.59" y="413.82" width="292.14" height="75.25" transform="translate(510.38 -329.27) rotate(45)"/>
      <rect x="654.02" y="399.51" width="332.61" height="75.25" transform="translate(1709.48 166.18) rotate(135)"/>
      <rect x="404.01" y="392.79" width="232.65" height="75.25" transform="translate(1192.62 366.83) rotate(135)"/>
    </g>
    <!-- Wordmark: mark right edge ≈ 80 + 79 = 159, +28px gap → x=187. Vertically centered with mark (mark center y=115, wordmark height=36 → y=97). -->
    <g transform="translate(187, 97) scale(0.295) translate(-263, -653)">
      <path d="M263.71,773.49v-120.4h14.1l79.64,98.9h-7.4v-98.9h17.2v120.4h-14.1l-79.64-98.9h7.4v98.9h-17.2Z"/>
      <path d="M466.33,774.87c-9.18,0-17.69-1.55-25.54-4.64-7.86-3.1-14.65-7.42-20.38-12.99-5.73-5.56-10.21-12.07-13.42-19.52-3.21-7.45-4.82-15.59-4.82-24.42s1.6-16.97,4.82-24.42c3.21-7.45,7.68-13.96,13.42-19.52,5.73-5.56,12.5-9.89,20.3-12.99,7.8-3.1,16.34-4.64,25.63-4.64s17.66,1.52,25.46,4.56c7.8,3.04,14.56,7.34,20.3,12.9,5.73,5.56,10.17,12.1,13.33,19.61,3.15,7.51,4.73,15.68,4.73,24.51s-1.58,17.14-4.73,24.6c-3.16,7.46-7.6,13.96-13.33,19.52-5.74,5.56-12.5,9.86-20.3,12.9-7.8,3.04-16.28,4.56-25.46,4.56ZM466.16,759.56c6.76,0,12.99-1.15,18.66-3.44,5.68-2.29,10.6-5.53,14.79-9.72,4.18-4.18,7.45-9.09,9.8-14.71,2.35-5.62,3.53-11.75,3.53-18.4s-1.18-12.75-3.53-18.32c-2.35-5.56-5.62-10.46-9.8-14.71-4.19-4.24-9.12-7.51-14.79-9.8-5.68-2.29-11.9-3.44-18.66-3.44s-12.81,1.15-18.49,3.44c-5.68,2.3-10.64,5.56-14.88,9.8-4.24,4.24-7.54,9.15-9.89,14.71-2.35,5.56-3.53,11.67-3.53,18.32s1.17,12.79,3.53,18.4c2.35,5.62,5.65,10.52,9.89,14.71,4.24,4.19,9.2,7.43,14.88,9.72,5.68,2.29,11.84,3.44,18.49,3.44Z"/>
      <path d="M565.06,773.49v-120.4h46.96c15.59,0,27.86,3.7,36.81,11.09,8.94,7.4,13.42,17.69,13.42,30.87,0,8.71-2.01,16.2-6.02,22.45-4.02,6.25-9.75,11.04-17.2,14.36-7.46,3.33-16.46,4.99-27,4.99h-37.5l7.74-7.91v44.55h-17.2ZM582.25,730.67l-7.74-8.43h36.98c11.01,0,19.35-2.38,25.03-7.14,5.68-4.76,8.51-11.44,8.51-20.04s-2.84-15.25-8.51-19.95c-5.68-4.7-14.02-7.05-25.03-7.05h-36.98l7.74-8.6v71.21ZM645.55,773.49l-30.62-43.69h18.4l30.96,43.69h-18.75Z"/>
      <path d="M733.44,773.49l-52.98-120.4h18.58l48.68,111.11h-10.66l49.02-111.11h17.2l-52.8,120.4h-17.03Z"/>
      <path d="M827.18,773.49v-120.4h17.2v120.4h-17.2Z"/>
      <path d="M942.94,774.87c-9.18,0-17.63-1.52-25.37-4.56-7.74-3.04-14.45-7.34-20.12-12.9-5.68-5.56-10.12-12.07-13.33-19.52-3.21-7.45-4.82-15.65-4.82-24.6s1.6-17.14,4.82-24.6c3.21-7.45,7.68-13.96,13.42-19.52,5.73-5.56,12.47-9.86,20.21-12.9,7.74-3.04,16.19-4.56,25.37-4.56s17.86,1.58,25.71,4.73c7.85,3.16,14.53,7.83,20.04,14.02l-11.18,10.84c-4.59-4.82-9.75-8.4-15.48-10.75-5.74-2.35-11.87-3.53-18.4-3.53s-13.04,1.15-18.83,3.44c-5.79,2.3-10.81,5.5-15.05,9.63-4.24,4.13-7.54,9.03-9.89,14.71-2.35,5.68-3.53,11.84-3.53,18.49s1.17,12.81,3.53,18.49c2.35,5.68,5.65,10.58,9.89,14.71,4.24,4.13,9.26,7.34,15.05,9.63,5.79,2.29,12.07,3.44,18.83,3.44s12.67-1.17,18.4-3.53c5.73-2.35,10.89-5.99,15.48-10.92l11.18,10.84c-5.5,6.19-12.19,10.9-20.04,14.1-7.86,3.21-16.49,4.82-25.89,4.82Z"/>
      <path d="M999.18,773.49l54.52-120.4h17.03l54.7,120.4h-18.06l-48.68-110.77h6.88l-48.68,110.77h-17.72ZM1022.4,743.39l4.64-13.76h67.77l4.99,13.76h-77.4Z"/>
    </g>
  </g>

  <!-- Headline, center-left -->
  <text x="80" y="320" class="display" font-size="92" fill="#f5f3ee" letter-spacing="-2">Global logistics.</text>
  <text x="80" y="430" class="display-em" font-size="92" letter-spacing="-2">Smart solutions.</text>

  <!-- Tagline -->
  <text x="80" y="500" class="body" font-size="22" fill="#cfcbc2">High-value, time-sensitive, complex shipments — anywhere.</text>

  <!-- Bottom rule + meta -->
  <line x1="80" y1="540" x2="160" y2="540" stroke="#dfc684" stroke-width="1.5"/>
  <text x="80" y="572" class="mono" font-size="14" fill="#8a857c">SHARJAH, UAE  ·  NORVICA.AE</text>
</svg>
